<svg width="48" height="48" viewBox="0 0 48 48" fill="none" xmlns="http://www.w3.org/2000/svg">
<rect x="16" y="16" width="16" height="16" fill="#3B3B3B" fill-opacity="0.01"/>
<path d="M27 29H31V27.8829C30.9879 27.8428 30.9719 27.7981 30.9505 27.7477C30.8583 27.5305 30.708 27.3063 30.4796 27.0882C30.2136 26.8342 29.8624 26.6102 29.4069 26.4286C29.0547 26.2881 28.8159 26.0376 28.5109 25.6223C28.4395 25.5251 28.3667 25.4202 28.2927 25.3084C28.1724 25.1269 28.0538 24.9354 27.9411 24.7442C27.8734 24.6294 27.8219 24.5388 27.7916 24.484C27.5243 24.0007 27.6994 23.3923 28.1826 23.1249C28.6659 22.8576 29.2744 23.0327 29.5417 23.516C29.6345 23.6837 29.7895 23.9467 29.9598 24.2037C30.0171 24.2901 30.0718 24.3689 30.1228 24.4384C30.1893 24.529 30.2467 24.5994 30.2879 24.6426C30.2797 24.6341 30.2528 24.6127 30.148 24.5709C30.8391 24.8466 31.4081 25.2094 31.8608 25.6417C32.2938 26.0552 32.5963 26.5067 32.7913 26.9658C32.8467 27.0962 32.8897 27.2186 32.9235 27.3347C32.9723 27.4546 33 27.593 33 27.7499C33.001 27.7632 33.0016 27.771 33 27.7892V30C33 30.5523 32.5523 31 32 31H28L27 29Z" fill="#79818C"/>
<path fill-rule="evenodd" clip-rule="evenodd" d="M23.958 17.1792C24.5972 16.4542 25.5017 16 26.5003 16C28.4253 16 30.0003 17.6875 30.0003 19.75V21.25C30.0003 23.3125 28.4253 25 26.5003 25C26.4072 25 26.3146 24.9908 26.2227 24.9723C26.4027 24.4313 26.5003 23.8513 26.5003 23.25V23C27.224 22.9073 28.0003 22.1717 28.0003 21.25V19.75C28.0003 18.7624 27.2888 18 26.5003 18C26.2239 18 25.7339 18.0936 25.2289 18.2578C24.8656 17.8301 24.4366 17.4645 23.958 17.1792Z" fill="#79818C"/>
<path fill-rule="evenodd" clip-rule="evenodd" d="M22.5 18C20.575 18 19 19.6875 19 21.75V23.25C19 25.3125 20.575 27 22.5 27C24.425 27 26 25.3125 26 23.25V21.75C26 19.6875 24.425 18 22.5 18ZM21 23.25V21.75C21 20.7624 21.7116 20 22.5 20C23.2884 20 24 20.7624 24 21.75V23.25C24 24.2376 23.2884 25 22.5 25C21.7116 25 21 24.2376 21 23.25Z" fill="#79818C"/>
<path d="M16.0002 29.1249C16.0002 28.9236 16.0458 28.7526 16.1232 28.6121C16.1625 28.5149 16.2107 28.4139 16.2698 28.3084C16.498 27.9012 16.8441 27.5096 17.3263 27.1607C17.8143 26.8075 18.4207 26.5144 19.1546 26.2925C19.0616 26.3206 19.1396 26.2587 19.2335 26.1619C19.2882 26.1056 19.3468 26.0415 19.4084 25.9713C19.5923 25.7611 19.7602 25.5457 19.8596 25.4098C20.1855 24.964 20.8112 24.8668 21.257 25.1927C21.7029 25.5187 21.8001 26.1444 21.4741 26.5902C21.4396 26.6374 21.3818 26.7143 21.306 26.8116C21.18 26.9732 21.0476 27.1352 20.913 27.2888C20.8303 27.3833 20.7489 27.4722 20.669 27.5545C20.343 27.8906 20.0744 28.1039 19.7333 28.207C19.2065 28.3663 18.801 28.5622 18.4988 28.7809C18.2538 28.9582 18.1021 29.1299 18.0144 29.2862C18.0092 29.2955 18.0045 29.3044 18.0002 29.3127V30H27.0002V29.3128C26.9959 29.3044 26.9911 29.2957 26.9859 29.2864C26.8983 29.13 26.7465 28.9584 26.5013 28.781C26.1989 28.5623 25.7932 28.3663 25.2661 28.207C24.9249 28.1039 24.6564 27.8906 24.3307 27.5547C24.2508 27.4722 24.1693 27.3832 24.0864 27.2884C23.952 27.1347 23.8196 26.9728 23.6938 26.8111C23.6181 26.7138 23.5603 26.6369 23.5259 26.5897C23.2002 26.1436 23.2978 25.518 23.7438 25.1924C24.1899 24.8667 24.8155 24.9643 25.1411 25.4103C25.2403 25.5462 25.408 25.7616 25.5917 25.9716C25.6533 26.042 25.712 26.1062 25.7667 26.1626C25.8602 26.259 25.9378 26.3207 25.8446 26.2925C26.5787 26.5144 27.1853 26.8074 27.6735 27.1605C28.1559 27.5095 28.5021 27.901 28.7305 28.3083C28.7896 28.4137 28.8377 28.5147 28.8771 28.612C28.9546 28.7526 29.0002 28.9235 29.0002 29.1249C29.0018 29.1421 29.0028 29.1523 29.0002 29.1756V31C29.0002 31.5523 28.5525 32 28.0002 32H17.0002C16.4479 32 16.0002 31.5523 16.0002 31V29.1756C15.9975 29.1523 15.9985 29.1421 16.0002 29.1249Z" fill="#79818C"/>
</svg>
