<svg width="48" height="48" viewBox="0 0 48 48" fill="none" xmlns="http://www.w3.org/2000/svg">
<rect x="16" y="16" width="16" height="16" fill="#3B3B3B" fill-opacity="0.01"/>
<path d="M21 28H24C24.5523 28 25 27.5523 25 27C25 26.4477 24.5523 26 24 26H21C20.4477 26 20 26.4477 20 27C20 27.5523 20.4477 28 21 28Z" fill="#79818C"/>
<path d="M21 25H24C24.5523 25 25 24.5523 25 24C25 23.4477 24.5523 23 24 23H21C20.4477 23 20 23.4477 20 24C20 24.5523 20.4477 25 21 25Z" fill="#79818C"/>
<path d="M29 18H21C20.4477 18.0011 20 17.5531 20 17C20 16.448 20.4477 16 21 16H29C30.1049 16 31 16.8956 31 18V28C31 28.552 30.5523 29 30 29C29.4477 29 29 28.552 29 28V18Z" fill="#79818C"/>
<path fill-rule="evenodd" clip-rule="evenodd" d="M19 32H26C27.1049 32 28 31.1044 28 30V21C28 19.8956 27.1049 19 26 19H19C17.8951 19 17 19.8956 17 21V30C17 31.1044 17.8951 32 19 32ZM19 21H26V30H19V21Z" fill="#79818C"/>
</svg>
