<svg width="48" height="48" viewBox="0 0 48 48" fill="none" xmlns="http://www.w3.org/2000/svg">
<rect opacity="0.01" x="16" y="16" width="16" height="16" fill="white"/>
<path d="M31 30H18V17C18 16.4477 17.5523 16 17 16C16.4477 16 16 16.4477 16 17V30C16 31.1051 16.8955 32 18 32H31C31.5523 32 32 31.5523 32 31C32 30.4477 31.5523 30 31 30Z" fill="#79818C"/>
<path d="M21 28V23C21 22.4477 20.5523 22 20 22C19.4477 22 19 22.4477 19 23V28C19 28.5523 19.4477 29 20 29C20.5523 29 21 28.5523 21 28Z" fill="#79818C"/>
<path d="M22 19V28C22 28.5523 22.4477 29 23 29C23.5523 29 24 28.5523 24 28V19C24 18.4477 23.5523 18 23 18C22.4477 18 22 18.4477 22 19Z" fill="#79818C"/>
<path d="M27 28V26C27 25.4477 26.5523 25 26 25C25.4477 25 25 25.4477 25 26V28C25 28.5523 25.4477 29 26 29C26.5523 29 27 28.5523 27 28Z" fill="#79818C"/>
<path d="M30 28V22C30 21.4477 29.5523 21 29 21C28.4477 21 28 21.4477 28 22V28C28 28.5523 28.4477 29 29 29C29.5523 29 30 28.5523 30 28Z" fill="#79818C"/>
</svg>
