<svg width="48" height="48" viewBox="0 0 48 48" fill="none" xmlns="http://www.w3.org/2000/svg">
<path class='svg' fill-rule="evenodd" clip-rule="evenodd" d="M24 48C37.2548 48 48 37.2548 48 24C48 10.7452 37.2548 0 24 0C10.7452 0 0 10.7452 0 24C0 37.2548 10.7452 48 24 48Z" fill="#F5F5F6"/>
<rect opacity="0.01" x="16" y="16" width="16" height="16" fill="white"/>
<path fill-rule="evenodd" clip-rule="evenodd" d="M24.6375 16.2296C24.2676 15.9235 23.7324 15.9235 23.3625 16.2296L22.9045 16.6086L22.7996 16.709L16.2576 23.958C16.0918 24.1418 16 24.3805 16 24.628V30C16 31.1043 16.8957 32 18 32H21C22.1043 32 23 31.1043 23 30V26H25V30C25 31.1043 25.8957 32 27 32H30C31.1043 32 32 31.1043 32 30V24.628C32 24.3805 31.9082 24.1418 31.7424 23.958L25.2004 16.709L25.0955 16.6086L24.6375 16.2296ZM18 30V25.0125L24 18.3641L30 25.0125V30H27V26C27 24.8957 26.1043 24 25 24H23C21.8957 24 21 24.8957 21 26V30H18Z" fill="#79818C"/>
</svg>
