<svg width="96" height="96" viewBox="0 0 96 96" fill="none" xmlns="http://www.w3.org/2000/svg">
<path fill-rule="evenodd" clip-rule="evenodd" d="M48 0C74.5104 0 96 21.492 96 48C96 74.5104 74.5104 96 48 96C21.4896 96 0 74.5104 0 48C0 21.492 21.4896 0 48 0Z" fill="#F5F5F6"/>
<path fill-rule="evenodd" clip-rule="evenodd" d="M47.9966 61.1462C49.8608 61.1462 51.3714 62.653 51.3714 64.5107C51.3714 66.3692 49.8608 67.8752 47.9966 67.8752C46.1324 67.8752 44.6217 66.3692 44.6217 64.5107C44.6217 62.653 46.1324 61.1462 47.9966 61.1462ZM46.425 28.1251H49.5764C51.3978 28.1251 52.8753 29.5981 52.8753 31.4146C52.8753 31.4768 52.8738 31.5383 52.8708 31.6006L51.555 54.7403C51.4565 56.4818 50.0105 57.8446 48.2607 57.8446H47.7401C45.9902 57.8446 44.545 56.4818 44.4457 54.7403L43.1307 31.6006C43.0276 29.7863 44.4186 28.2331 46.2385 28.1303C46.3001 28.1266 46.3626 28.1251 46.425 28.1251Z" fill="#79818C"/>
</svg>
