<svg width="10" height="10" viewBox="0 0 10 10" fill="none" xmlns="http://www.w3.org/2000/svg">
<path fill-rule="evenodd" clip-rule="evenodd" d="M9.24264 0.757358C8.90791 0.422622 8.36519 0.422623 8.03046 0.757358L5 3.78782L1.96954 0.757358C1.63481 0.422623 1.09209 0.422622 0.757359 0.757358C0.422624 1.09209 0.422624 1.63481 0.75736 1.96954L3.78782 5L0.75736 8.03046C0.422624 8.36519 0.422624 8.9079 0.757359 9.24264C1.09209 9.57737 1.63481 9.57737 1.96954 9.24264L5 6.21218L8.03046 9.24264C8.36519 9.57737 8.90791 9.57737 9.24264 9.24264C9.57738 8.9079 9.57738 8.36519 9.24264 8.03046L6.21218 5L9.24264 1.96954C9.57738 1.63481 9.57738 1.09209 9.24264 0.757358Z" fill="#959BA4"/>
</svg>
