<svg width="96" height="96" viewBox="0 0 96 96" fill="none" xmlns="http://www.w3.org/2000/svg">
<path opacity="0.16" d="M48 96C74.5097 96 96 74.5097 96 48C96 21.4903 74.5097 0 48 0C21.4903 0 0 21.4903 0 48C0 74.5097 21.4903 96 48 96Z" fill="#39B54A"/>
<path d="M41.956 54.3728L65.0717 35.5827C65.7146 35.0602 66.6593 35.1577 67.1819 35.8005C67.6606 36.3894 67.624 37.2431 67.0966 37.7889L42.7516 62.9865C42.176 63.5823 41.2264 63.5986 40.6306 63.023C40.5956 62.9892 40.5624 62.9538 40.5308 62.9168L36.8142 58.5524L36.8248 58.5438L30.3862 50.9546C29.8502 50.3229 29.9279 49.3763 30.5596 48.8403C31.0422 48.4309 31.7299 48.3684 32.2784 48.6842L41.6028 54.0524L41.956 54.3728Z" fill="#39B54A" stroke="#39B54A" stroke-width="4"/>
</svg>
