<svg width="96" height="96" viewBox="0 0 96 96" fill="none" xmlns="http://www.w3.org/2000/svg">
<path opacity="0.16" fill-rule="evenodd" clip-rule="evenodd" d="M48 96C74.5097 96 96 74.5097 96 48C96 21.4903 74.5097 0 48 0C21.4903 0 0 21.4903 0 48C0 74.5097 21.4903 96 48 96Z" fill="#E01F19"/>
<path fill-rule="evenodd" clip-rule="evenodd" d="M53.9166 48.0006L63.752 59.4119C64.8632 60.6987 64.7186 62.6442 63.4318 63.7524C62.2774 64.7467 60.5659 64.7467 59.4115 63.7524L48 53.9171L36.5885 63.7524C35.3018 64.8637 33.3563 64.719 32.248 63.4322C31.2507 62.2779 31.2507 60.5663 32.248 59.4119L42.0834 48.0006L32.248 36.5892C31.1368 35.3025 31.2814 33.357 32.5682 32.2457C33.7226 31.2514 35.4341 31.2514 36.5885 32.2457L48 42.0841L59.4115 32.2457C60.6982 31.1375 62.6438 31.2822 63.752 32.5689C64.7493 33.7233 64.7493 35.4318 63.752 36.5892L53.9166 48.0006Z" fill="#E01F19"/>
</svg>
