<svg width="64" height="64" viewBox="0 0 64 64" fill="none" xmlns="http://www.w3.org/2000/svg">
<path fill-rule="evenodd" clip-rule="evenodd" d="M36.0438 22.9476C36.0438 24.6103 35.489 26.4732 34.6019 27.8827C33.6708 29.3621 32.7071 29.869 32.0716 29.869C31.4361 29.869 30.4724 29.3621 29.5412 27.8827C28.6541 26.4732 28.0994 24.6103 28.0994 22.9476C28.0994 21.3528 28.6018 20.4474 29.1873 19.92C29.8078 19.361 30.7756 19 32.0716 19C33.3675 19 34.3354 19.361 34.9559 19.92C35.5413 20.4474 36.0438 21.3528 36.0438 22.9476ZM32.0716 31.869C35.3699 31.869 38.0438 27.0536 38.0438 22.9476C38.0438 18.8416 35.3699 17 32.0716 17C28.7732 17 26.0994 18.8416 26.0994 22.9476C26.0994 27.0536 28.7732 31.869 32.0716 31.869ZM30.0028 45.4283L29.9783 45.7698L30.0389 45.8608C27.7495 45.5355 25.6168 44.6654 24.0007 43.4185V39.3738V39.3605L24.0006 39.3472C23.9949 38.9218 24.0631 38.7105 24.1137 38.6097C24.148 38.5415 24.2121 38.4425 24.4099 38.3225L24.418 38.3197L24.4822 38.2922L29.7131 36.0521C30.02 36.1767 30.3339 36.2764 30.6557 36.3484L30.0028 45.4283ZM31.4598 47.9921C31.5595 47.9956 31.6593 47.9983 31.7592 48H32.3261C32.397 47.9988 32.4679 47.9971 32.5388 47.9949C35.8468 47.8942 39.0534 46.7697 41.3698 44.8936C41.7642 44.5746 42.0002 44.0528 42.0002 43.4977L41.9989 39.4083C42.0158 38.0898 41.6072 37.1441 40.4839 36.5297C40.4343 36.5086 40.3839 36.4866 40.3345 36.4651L40.2893 36.4455L34.779 34.1177C34.4041 33.9589 33.9722 33.9617 33.5675 34.1205C33.0782 34.3142 32.6223 34.43 32.1835 34.4681C32.1516 34.4709 32.1198 34.4732 32.088 34.4752C31.9888 34.4812 31.8903 34.4833 31.7926 34.4813C31.6707 34.4789 31.5498 34.4702 31.4296 34.4552C31.0554 34.4087 30.6873 34.3017 30.3142 34.1343C29.9354 33.9645 29.4983 33.97 29.0819 34.1467L23.6948 36.4537C23.6274 36.4772 23.5612 36.5048 23.499 36.5393C22.3873 37.1551 21.9839 38.105 22.0007 39.3738V43.4895C22.0007 44.05 22.242 44.5746 22.6441 44.8963C24.9819 46.7534 28.1785 47.8745 31.4598 47.9921ZM40.0002 43.4278C38.4023 44.6838 36.2648 45.5583 33.9533 45.8732L34.0229 45.7688L33.9975 45.4262L33.3217 36.2979C33.6083 36.2268 33.8909 36.1369 34.1702 36.0316L39.5015 38.2838L39.5312 38.2967L39.5907 38.3226C39.7885 38.4423 39.8497 38.5389 39.8823 38.6037C39.933 38.7046 40.005 38.9246 39.9991 39.3827L39.9989 39.3958L39.9989 39.4089L40.0002 43.4278Z" fill="#C4C4C4"/>
</svg>
