<svg width="48" height="48" viewBox="0 0 48 48" fill="none" xmlns="http://www.w3.org/2000/svg">
<path fill-rule="evenodd" clip-rule="evenodd" d="M25 24C25 23.4484 24.5519 23 24 23C23.4481 23 23 23.4484 23 24C23 24.5516 23.4481 25 24 25C24.5519 25 25 24.5516 25 24ZM27 24C27 25.6564 25.6561 27 24 27C22.3439 27 21 25.6564 21 24C21 22.3436 22.3439 21 24 21C25.6561 21 27 22.3436 27 24ZM21.3769 17.2442L21.4629 16.8072C21.5552 16.3382 21.9662 16 22.444 16H25.555C26.032 16 26.4425 16.337 26.5357 16.8051L26.6216 17.2364L26.8456 18.3283C27.0951 18.4514 27.3377 18.5918 27.5733 18.7487L28.7159 18.3667L29.1479 18.2327C29.5924 18.0948 30.0733 18.282 30.3078 18.6843L30.5274 19.0611L31.6388 20.9221L31.8638 21.3081C32.1055 21.7228 32.0188 22.2509 31.6571 22.5664L31.3189 22.8613L30.5027 23.5561C30.522 23.7123 30.53 23.843 30.53 24C30.53 24.157 30.522 24.2878 30.5027 24.4439L31.3281 25.1466L31.6571 25.4336C32.0188 25.7491 32.1055 26.2772 31.8638 26.6919L31.6334 27.0871L30.5333 28.9288L30.3083 29.3158C30.0737 29.7193 29.5913 29.9069 29.1459 29.7677L28.6949 29.6266L27.5733 29.2513C27.3376 29.4082 27.0951 29.5486 26.8456 29.6717L26.6227 30.758L26.5357 31.1949C26.4425 31.663 26.032 32 25.555 32H22.444C21.9662 32 21.5552 31.6618 21.4629 31.1928L21.3786 30.7642L21.1538 29.6719C20.9041 29.5488 20.6614 29.4083 20.4257 29.2513L19.2851 29.6327L18.8531 29.7677C18.407 29.9071 17.9239 29.7187 17.6897 29.3141L17.4728 28.9392L16.3593 27.0762L16.1353 26.6903C15.895 26.2762 15.9815 25.7498 16.3418 25.4346L16.6801 25.1387L17.4966 24.4437C17.4771 24.2869 17.469 24.1567 17.469 24C17.469 23.8433 17.4771 23.7131 17.4966 23.5563L16.6698 22.8524L16.3418 22.5654C15.9815 22.2502 15.895 21.7238 16.1353 21.3097L16.3658 20.9126L17.4663 19.0719L17.6903 18.6859C17.9243 18.2826 18.4059 18.0946 18.8511 18.2327L19.3041 18.3734L20.4257 18.7487C20.6615 18.5917 20.9041 18.4512 21.1538 18.3281L21.3769 17.2442ZM23.2266 18L22.9594 19.2373C22.8871 19.572 22.6405 19.8484 22.3056 19.9704C21.877 20.1264 21.4666 20.3532 21.073 20.6472C20.7953 20.8546 20.4269 20.9153 20.0924 20.8087L18.7626 20.3847L18 21.5998L18.9816 22.3957C19.2615 22.6227 19.3966 22.9727 19.3376 23.3185C19.3257 23.3868 19.3257 23.3868 19.3142 23.4513C19.2583 23.7623 19.243 23.8768 19.243 24C19.243 24.1232 19.2583 24.2377 19.3092 24.521C19.3257 24.6132 19.3257 24.6132 19.3376 24.6815C19.3966 25.0273 19.2615 25.3773 18.9816 25.6043L18 26.4001L18.7624 27.6152L20.0924 27.1913C20.4269 27.0847 20.7953 27.1454 21.073 27.3528C21.4666 27.6468 21.877 27.8736 22.3056 28.0296C22.6405 28.1516 22.8871 28.428 22.9594 28.7627L23.2266 30H24.7741L25.0404 28.7633C25.1125 28.4283 25.3592 28.1516 25.6943 28.0296C26.1229 27.8736 26.5333 27.6468 26.9269 27.3528C27.2046 27.1454 27.573 27.0847 27.9075 27.1913L29.2381 27.6155L30 26.4003L29.0183 25.6043C28.7374 25.3765 28.6024 25.0249 28.6629 24.678C28.6748 24.6107 28.6748 24.6107 28.6863 24.5471C28.7411 24.2453 28.7569 24.1277 28.7569 24C28.7569 23.8723 28.7411 23.7547 28.6881 23.4627C28.6748 23.3893 28.6748 23.3893 28.6629 23.322C28.6024 22.9751 28.7374 22.6235 29.0183 22.3957L30 21.5997L29.2382 20.3846L27.9075 20.8087C27.573 20.9153 27.2046 20.8546 26.9269 20.6472C26.5333 20.3532 26.1229 20.1264 25.6943 19.9704C25.3592 19.8484 25.1125 19.5717 25.0404 19.2367L24.7741 18H23.2266Z" fill="#79818C"/>
</svg>
