<svg width="48" height="48" viewBox="0 0 48 48" fill="none" xmlns="http://www.w3.org/2000/svg">
<path fill-rule="evenodd" clip-rule="evenodd" d="M21 21V20H27V21C27 21.5521 27.4477 22 28 22C28.5523 22 29 21.5521 29 21V20H30V24H18V20H19V21C19 21.5521 19.4477 22 20 22C20.5523 22 21 21.5521 21 21ZM29 18H30C31.1051 18 32 18.8955 32 20V30C32 31.1045 31.1051 32 30 32H18C16.8949 32 16 31.1045 16 30V20C16 18.8955 16.8949 18 18 18H19V17C19 16.4479 19.4477 16 20 16C20.5523 16 21 16.4479 21 17V18H27V17C27 16.4479 27.4477 16 28 16C28.5523 16 29 16.4479 29 17V18ZM30 30H18V26H30V30Z" fill="#79818C"/>
<mask id="mask0" mask-type="alpha" maskUnits="userSpaceOnUse" x="16" y="16" width="16" height="16">
<path fill-rule="evenodd" clip-rule="evenodd" d="M21 21V20H27V21C27 21.5521 27.4477 22 28 22C28.5523 22 29 21.5521 29 21V20H30V24H18V20H19V21C19 21.5521 19.4477 22 20 22C20.5523 22 21 21.5521 21 21ZM29 18H30C31.1051 18 32 18.8955 32 20V30C32 31.1045 31.1051 32 30 32H18C16.8949 32 16 31.1045 16 30V20C16 18.8955 16.8949 18 18 18H19V17C19 16.4479 19.4477 16 20 16C20.5523 16 21 16.4479 21 17V18H27V17C27 16.4479 27.4477 16 28 16C28.5523 16 29 16.4479 29 17V18ZM30 30H18V26H30V30Z" fill="white"/>
</mask>
<g mask="url(#mask0)">
</g>
</svg>
