<svg width="158" height="24" viewBox="0 0 158 24" fill="none" xmlns="http://www.w3.org/2000/svg">
<path fill-rule="evenodd" clip-rule="evenodd" d="M14.106 13.8912C14.246 13.676 14.3892 13.464 14.5391 13.2529H14.6265V18.0207H16.8377V9.92627H14.6265L12.1504 13.6179C12.0109 13.8285 11.872 14.0319 11.734 14.2291C11.5961 14.4284 11.4561 14.6395 11.3186 14.8587H11.2312V9.92627H9.02002V18.0207H11.2312C11.6476 17.4574 12.0547 16.8814 12.4518 16.2911C12.8505 15.7008 13.2519 15.1181 13.6558 14.5436C13.8171 14.3245 13.9681 14.1058 14.106 13.8912Z" fill="#211300"/>
<path fill-rule="evenodd" clip-rule="evenodd" d="M21.1352 14.6606H24.4255V18.0209H26.6371V9.92645H24.4255V13.0054H21.1352V9.92645H18.9241V18.0209H21.1352V14.6606Z" fill="#211300"/>
<path fill-rule="evenodd" clip-rule="evenodd" d="M33.2292 16.1672C33.0096 16.3216 32.7207 16.3991 32.3636 16.3991H30.9358V14.4121H32.3459C32.7155 14.4121 33.0096 14.4957 33.2292 14.6603C33.4473 14.826 33.5566 15.0753 33.5566 15.4061C33.5566 15.7588 33.4473 16.0127 33.2292 16.1672ZM35.7683 15.4234C35.7683 14.5941 35.4742 13.9518 34.8897 13.4925C34.302 13.0357 33.516 12.8058 32.5302 12.8058H30.9358V9.92621H28.7241V18.0212H32.627C33.5806 18.0212 34.3426 17.8127 34.9121 17.4003C35.4841 16.9853 35.7683 16.3272 35.7683 15.4234Z" fill="#211300"/>
<path fill-rule="evenodd" clip-rule="evenodd" d="M61.9628 16.3991C61.6921 16.5204 61.4074 16.5918 61.1086 16.6137V11.3825C61.8337 11.4386 62.3922 11.7052 62.7842 12.1854C63.1756 12.6661 63.3724 13.26 63.3724 13.965C63.3724 14.3855 63.3083 14.7556 63.1808 15.0747C63.0548 15.3948 62.8878 15.6645 62.6801 15.8857C62.4734 16.1054 62.234 16.2777 61.9628 16.3991ZM59.0323 16.5979C58.72 16.5739 58.4243 16.5041 58.1463 16.3828C57.8673 16.2599 57.6227 16.0902 57.4145 15.8679C57.2058 15.6477 57.0408 15.3801 56.9184 15.0655C56.7961 14.7515 56.7352 14.3855 56.7352 13.965C56.7352 13.26 56.9361 12.6661 57.3364 12.1854C57.7367 11.7052 58.3025 11.4386 59.0323 11.3825V16.5979ZM64.2198 16.9603C64.6081 16.5979 64.9136 16.1625 65.1406 15.6533C65.3644 15.1456 65.4789 14.5665 65.4789 13.914C65.4789 13.3084 65.3686 12.7563 65.1484 12.2603C64.9298 11.7628 64.6247 11.3362 64.238 10.9773C63.8507 10.6189 63.3885 10.3375 62.8513 10.1336C62.3136 9.92923 61.7322 9.81148 61.1086 9.77681V6.73254L59.0323 7.51145V9.77681C58.4181 9.81148 57.8408 9.93484 57.3005 10.15C56.7612 10.3661 56.2933 10.6526 55.8982 11.0109C55.5047 11.3683 55.195 11.7949 54.968 12.2853C54.7416 12.7762 54.6287 13.3206 54.6287 13.914C54.6287 14.5665 54.7333 15.1481 54.9425 15.6625C55.1507 16.1743 55.45 16.6162 55.8389 16.9853C56.2272 17.3559 56.692 17.6434 57.2307 17.8478C57.7726 18.0502 58.3722 18.1689 59.0323 18.2016V21.6312L61.1253 20.8523V18.1863C61.7374 18.1542 62.3105 18.0308 62.8425 17.8223C63.3744 17.6128 63.833 17.3248 64.2198 16.9603Z" fill="#211300"/>
<path fill-rule="evenodd" clip-rule="evenodd" d="M75.1927 15.0747C75.0657 15.3948 74.8987 15.6645 74.692 15.8852C74.4848 16.1054 74.2444 16.2777 73.9747 16.3991C73.703 16.5204 73.4183 16.5918 73.1195 16.6137V11.3825C73.8441 11.4381 74.4031 11.7052 74.7956 12.1849C75.187 12.6661 75.3817 13.2595 75.3817 13.965C75.3817 14.3855 75.3208 14.7551 75.1927 15.0747ZM71.0458 16.5974C70.7319 16.5739 70.4362 16.5041 70.1572 16.3822C69.8793 16.2604 69.6346 16.0896 69.4269 15.8679C69.2166 15.6482 69.0522 15.3801 68.9298 15.065C68.8075 14.7515 68.7477 14.3855 68.7477 13.965C68.7477 13.2595 68.947 12.6661 69.3478 12.1849C69.7486 11.7052 70.3144 11.4381 71.0458 11.3825V16.5974ZM77.152 15.6538C77.3779 15.1456 77.4903 14.567 77.4903 13.9145C77.4903 13.3084 77.3805 12.7563 77.1608 12.2598C76.9417 11.7633 76.6372 11.3362 76.2499 10.9773C75.8627 10.6194 75.3999 10.3375 74.8627 10.1336C74.324 9.92923 73.7426 9.81148 73.1195 9.77732V6.73254L71.0458 7.51145V9.77732C70.43 9.81148 69.8527 9.93484 69.3124 10.1505C68.7732 10.3661 68.3057 10.6526 67.9112 11.0114C67.5171 11.3688 67.2064 11.7944 66.98 12.2853C66.7535 12.7767 66.6411 13.3201 66.6411 13.9145C66.6411 14.567 66.7442 15.1486 66.955 15.662C67.1632 16.1743 67.4615 16.6157 67.8508 16.9858C68.2396 17.3564 68.7039 17.6434 69.2442 17.8478C69.7825 18.0502 70.3842 18.1689 71.0458 18.2021V21.6312L73.1367 20.8528V18.1868C73.7499 18.1542 74.3214 18.0308 74.8534 17.8228C75.3853 17.6128 75.8444 17.3248 76.2317 16.9603C76.6205 16.5974 76.9266 16.1625 77.152 15.6538Z" fill="#211300"/>
<path fill-rule="evenodd" clip-rule="evenodd" d="M0.0600586 8.37005H3.27948V18.0299H5.57862V8.37005H8.69029V6.48547H0.0600586V8.37005Z" fill="#211300"/>
<path fill-rule="evenodd" clip-rule="evenodd" d="M44.9706 9.96876H42.4492L39.4864 13.4081V9.92645H37.293V18.0296H39.4864V14.0886L42.3795 18.0296H44.9873L41.7335 13.693L44.9706 9.96876Z" fill="#211300"/>
<path fill-rule="evenodd" clip-rule="evenodd" d="M51.1319 14.967C51.0507 15.2662 50.9336 15.5272 50.7832 15.7541C50.6302 15.9799 50.4407 16.1568 50.2137 16.2832C49.9863 16.4101 49.7281 16.4739 49.4351 16.4739C48.8406 16.4739 48.3862 16.2542 48.0702 15.8204C47.7548 15.385 47.5971 14.7692 47.5971 13.9735C47.5971 13.2685 47.7506 12.6828 48.0525 12.2199C48.3576 11.7561 48.7995 11.5236 49.382 11.5236C50.0003 11.5236 50.4662 11.754 50.7822 12.2118C51.0981 12.6695 51.2537 13.2685 51.2537 14.0082C51.2537 14.3492 51.2137 14.6688 51.1319 14.967ZM52.3448 10.9114C51.9929 10.5474 51.5661 10.2686 51.0679 10.0754C50.5698 9.88219 50.0269 9.78534 49.4351 9.78534C48.8448 9.78534 48.3003 9.88219 47.8022 10.0754C47.303 10.2686 46.8762 10.5449 46.5155 10.9027C46.1579 11.2616 45.8794 11.7046 45.6821 12.2276C45.4859 12.7511 45.387 13.3445 45.387 14.0082C45.387 14.6474 45.4827 15.2265 45.6738 15.7454C45.8638 16.2649 46.1339 16.7053 46.4816 17.0698C46.8298 17.4332 47.2489 17.7151 47.7423 17.9149C48.2337 18.1127 48.786 18.2116 49.4007 18.2116C49.9899 18.2116 50.5354 18.1148 51.0341 17.9221C51.5322 17.7299 51.9601 17.4495 52.3198 17.0866C52.6789 16.7216 52.96 16.2776 53.1609 15.7541C53.365 15.2306 53.4665 14.6357 53.4665 13.9735C53.4665 13.3343 53.3671 12.7537 53.1698 12.2363C52.9741 11.7178 52.6987 11.2764 52.3448 10.9114Z" fill="#211300"/>
<path d="M97.535 18L99.89 7.32H98.12L97.235 11.43C96.905 13.02 96.575 14.655 96.305 16.245H96.275C95.945 14.655 95.585 13.02 95.195 11.415L94.205 7.32H91.835L90.845 11.415C90.455 13.02 90.095 14.655 89.765 16.245H89.735C89.465 14.655 89.135 13.02 88.79 11.43L87.92 7.32H86.15L88.505 18H90.92L91.985 13.56C92.36 12 92.705 10.44 93.005 8.865H93.035C93.335 10.44 93.68 12 94.055 13.56L95.12 18H97.535ZM103.839 16.965C102.774 16.965 101.904 16.26 101.844 14.535H107.439C107.439 13.8 107.379 13.23 107.229 12.75C106.809 11.16 105.549 10.155 103.809 10.155C101.499 10.155 100.149 11.85 100.149 14.1C100.149 16.56 101.514 18.225 103.839 18.225C105.834 18.225 107.064 17.07 107.349 15.705H105.594C105.444 16.44 104.814 16.965 103.839 16.965ZM103.809 11.415C104.829 11.415 105.609 12.075 105.729 13.41H101.874C102.024 12.09 102.774 11.415 103.809 11.415ZM110.807 11.37V7.32H109.097V18H110.762V16.95H110.792C111.242 17.73 112.097 18.18 113.057 18.18C114.992 18.18 116.237 16.62 116.237 14.19C116.237 11.76 115.007 10.185 113.072 10.185C112.127 10.185 111.272 10.62 110.837 11.37H110.807ZM112.562 11.52C113.717 11.52 114.452 12.57 114.452 14.19C114.452 15.81 113.717 16.86 112.562 16.86C111.452 16.86 110.717 15.84 110.717 14.19C110.717 12.525 111.452 11.52 112.562 11.52ZM122.356 7.095C119.296 7.095 117.406 9.225 117.406 12.66C117.406 16.095 119.296 18.225 122.356 18.225C125.416 18.225 127.306 16.095 127.306 12.66C127.306 9.225 125.416 7.095 122.356 7.095ZM122.356 8.7C124.261 8.7 125.446 10.215 125.446 12.66C125.446 15.105 124.261 16.62 122.356 16.62C120.451 16.62 119.266 15.105 119.266 12.66C119.266 10.215 120.451 8.7 122.356 8.7ZM133.759 10.38H131.074V9.765C131.074 8.865 131.434 8.52 132.169 8.52C132.319 8.52 132.484 8.55 132.589 8.58V7.32C132.364 7.275 132.004 7.215 131.689 7.215C130.189 7.215 129.379 7.995 129.379 9.57V10.38H128.089V11.685H129.379V18H131.074V11.685H133.759V18H135.454V11.685H136.924V10.38H135.454V9.765C135.454 8.865 135.814 8.52 136.549 8.52C136.699 8.52 136.864 8.55 136.954 8.58V7.32C136.744 7.275 136.369 7.215 136.069 7.215C134.569 7.215 133.759 7.995 133.759 9.57V10.38ZM139.939 7.32H138.229V8.955H139.939V7.32ZM138.229 10.38V18H139.939V10.38H138.229ZM145.309 10.155C143.059 10.155 141.604 11.715 141.604 14.19C141.604 16.665 143.059 18.225 145.309 18.225C147.274 18.225 148.594 16.95 148.744 15.105H146.944C146.869 16.14 146.239 16.875 145.309 16.875C144.109 16.875 143.404 15.855 143.404 14.19C143.404 12.525 144.109 11.505 145.309 11.505C146.239 11.505 146.884 12.15 146.959 13.14H148.744C148.594 11.4 147.259 10.155 145.309 10.155ZM153.6 16.965C152.535 16.965 151.665 16.26 151.605 14.535H157.2C157.2 13.8 157.14 13.23 156.99 12.75C156.57 11.16 155.31 10.155 153.57 10.155C151.26 10.155 149.91 11.85 149.91 14.1C149.91 16.56 151.275 18.225 153.6 18.225C155.595 18.225 156.825 17.07 157.11 15.705H155.355C155.205 16.44 154.575 16.965 153.6 16.965ZM153.57 11.415C154.59 11.415 155.37 12.075 155.49 13.41H151.635C151.785 12.09 152.535 11.415 153.57 11.415Z" fill="#333333"/>
</svg>
